<?xml version="1.0" encoding="utf-8"?>
<!-- Generator: Adobe Illustrator 22.1.0, SVG Export Plug-In . SVG Version: 6.00 Build 0)  -->
<svg version="1.1" id="Capa_1" xmlns="http://www.w3.org/2000/svg" xmlns:xlink="http://www.w3.org/1999/xlink" x="0px" y="0px"
	 viewBox="0 0 256 128" style="enable-background:new 0 0 256 128;" xml:space="preserve">
<style type="text/css">
	.st0{fill:#324D77;}
	.st1{fill:#83ACFF;}
	.st2{fill:#527CC1;}
	.st3{fill:#FFFFFF;}
</style>
<path class="st0" d="M49.5,94.2l-0.2,0c-3.5-0.2-6.1-1.9-7.3-2.7L7.7,68.6c-2-1.3-6.6-4.3-6.7-11.1c-0.2-6.8,4.8-10.1,6.7-11.3
	l34.4-22.9c2.4-1.6,4.9-2.5,7.3-2.6l0.2,0c0,0,156.2,0,156.4,0c2.6,0,5.3,0.9,7.8,2.6l34.4,22.9c1.9,1.2,6.9,4.4,6.7,11.3
	c0,6.7-4.7,9.7-6.7,11L214,91.4c-1.3,0.9-4.1,2.7-8,2.7C205.9,94.2,49.5,94.2,49.5,94.2z"/>
<path class="st1" d="M49.5,89.2l-0.2,0c-3.5-0.2-6.1-1.9-7.3-2.7L7.7,63.6c-2-1.3-6.6-4.3-6.7-11.1c-0.2-6.8,4.8-10.1,6.7-11.3
	l34.4-22.9c2.4-1.6,4.9-2.5,7.3-2.6l0.2,0c0,0,156.2,0,156.4,0c2.6,0,5.3,0.9,7.8,2.6l34.4,22.9c1.9,1.2,6.9,4.4,6.7,11.3
	c0,6.7-4.7,9.7-6.7,11L214,86.4c-1.3,0.9-4.1,2.7-8,2.7C205.9,89.2,49.5,89.2,49.5,89.2z"/>
<g>
	<path class="st0" d="M64.5,32c-0.2-4.3-3.7-7.8-7.9-7.8c-1.7,0-3.4,0.6-5.2,1.8L20,46.9c-1.7,1.1-4.8,3-4.6,7.3
		c0,4.4,2.8,6.2,4.5,7.3l31.4,20.9c1,0.7,2.9,1.9,5.4,1.9c2,0,4-0.9,5.5-2.4c1.5-1.5,2.3-3.6,2.3-5.7c-0.2-3.8-2.5-5.8-4.2-6.9
		l-22.6-15l22.5-14.9C61.5,38.5,64.5,36.4,64.5,32z"/>
	<path class="st0" d="M108.1,25.7c-1.5-5.6-5-6.7-7.7-6.7c-5.6,0-7.1,5-7.6,6.7l-15,51.8c-0.5,1.9-0.1,3.9,1.1,5.6
		c1.4,1.9,3.8,3.1,6.2,3.1c3.7,0,6.6-2.4,7.8-6.5l2.1-6.5h10.7l2,6.4c1.2,4.1,4.1,6.6,7.8,6.6c2.4,0,4.8-1.2,6.2-3.1
		c1.3-1.7,1.7-3.7,1.1-5.6L108.1,25.7z M100.4,54.5l0.9,3.3h-1.9L100.4,54.5z"/>
	<path class="st0" d="M155.9,35.3c0.2-0.5,0.5-1,0.6-1c0.1-0.1,0.7-0.1,1.3-0.1h12.8c3.8,0,7.6-2.6,7.6-7.6c0-5-3.8-7.6-7.6-7.6h-13
		c-7.3,0-12,2.9-15.2,9.5l-7,14.1c-1.6,3.3-2.5,5.9-2.5,10.2c0,3.3,0.8,6.3,2.5,9.7l7,14.2c3.2,6.4,7.9,9.4,14.9,9.4h13.4
		c3.8,0,7.6-2.6,7.6-7.6c0-5-3.8-7.6-7.6-7.6h-12.5c-1.7,0-1.7,0-2.3-1.2l-6.6-13.4c-0.8-1.6-1.1-2.2-1.1-3.4c0-1.5,0.4-2.4,1.2-4.1
		L155.9,35.3z"/>
	<path class="st0" d="M236.1,47L204.6,26c-1.8-1.2-3.5-1.8-5.3-1.8c-4.2,0-7.7,3.5-7.9,7.9c0,4.2,3.1,6.3,4.4,7.2l22.4,14.9
		l-22.6,15c-1.8,1.1-4.1,3.1-4.3,7.1c0,4.3,3.6,8,7.8,8c2.5,0,4.4-1.3,5.4-1.9L236,61.6c1.7-1.1,4.6-2.9,4.6-7.2
		C240.8,49.9,237.6,47.9,236.1,47z"/>
</g>
<g>
	<path class="st2" d="M62.5,30.1c-0.1-3.2-2.7-5.9-5.9-5.9c-1.3,0-2.7,0.5-4.1,1.5L21.1,46.6c-1.5,1-3.8,2.4-3.7,5.7
		c0,3.3,2,4.6,3.6,5.6l31.4,20.9c1,0.6,2.4,1.6,4.3,1.6c3.1,0,5.8-2.8,5.8-6.1c-0.1-2.9-1.8-4.3-3.3-5.3L34.1,52.3l25-16.6
		C60.3,34.9,62.5,33.3,62.5,30.1z"/>
	<path class="st3" d="M106.2,24.2c-0.3-1.3-1.4-5.2-5.7-5.2c-4.1,0-5.2,3.6-5.6,5.2l-15,51.8c-0.4,1.3-0.1,2.7,0.8,3.8
		c1.1,1.4,2.8,2.3,4.6,2.3c2.8,0,4.9-1.9,5.9-5.1l2.5-7.9h13.6l2.4,7.9c1,3.3,3.1,5.1,5.9,5.1c1.8,0,3.5-0.9,4.6-2.3
		c0.9-1.2,1.2-2.6,0.8-3.8L106.2,24.2z M96.8,57.8l3.6-12.6l3.6,12.6H96.8z"/>
	<path class="st3" d="M154.1,32.4c1.1-2.2,1.1-2.2,3.7-2.2h12.8c2.8,0,5.6-1.9,5.6-5.6c0-3.9-2.9-5.6-5.6-5.6h-13
		c-6.6,0-10.5,2.4-13.4,8.3l-7,14.1c-1.5,3-2.3,5.4-2.3,9.3c0,3,0.7,5.7,2.3,8.8l7,14.2c2.8,5.7,6.9,8.3,13.1,8.3h13.4
		c2.8,0,5.6-1.9,5.6-5.6c0-3.9-2.9-5.6-5.6-5.6h-12.5c-3,0-3,0-4.1-2.4L147.4,55c-0.8-1.6-1.3-2.6-1.3-4.3c0-2,0.5-3.1,1.4-5
		L154.1,32.4z"/>
	<path class="st2" d="M235,46.6l-31.5-20.9c-1.5-1-2.8-1.5-4.1-1.5c-3.1,0-5.7,2.6-5.9,5.9c0,3.2,2.3,4.7,3.5,5.6l24.9,16.5
		l-25.1,16.7c-1.6,1-3.2,2.5-3.3,5.4c0,3.2,2.7,6,5.8,6c1.9,0,3.3-1,4.3-1.6l31.4-20.9c1.6-1,3.7-2.3,3.7-5.6
		C238.7,49,236.4,47.6,235,46.6z"/>
</g>
<g>
	<path class="st0" d="M22.4,106.4c-0.4,0-0.8,0-1.2,0h-3.4v12.2h3.3c1.6,0,2.4,0,3.2-0.3c0.8-0.3,1.3-0.8,1.6-1.1
		c1.5-1.6,1.6-3.8,1.6-4.7c0-2.7-1.2-4.2-1.6-4.7C24.8,106.7,23.8,106.4,22.4,106.4z M24.7,109c1,1.2,1.1,2.8,1.1,3.5
		c0,1.8-0.6,2.8-0.9,3.2c-0.1,0.2-0.5,0.7-1,1c-0.6,0.3-1.5,0.3-3,0.3h-1.4v-9h1.7c1.3,0,1.9,0,2.4,0.2
		C24.2,108.4,24.5,108.7,24.7,109z"/>
	<polygon class="st0" points="35.7,113.1 41.6,113.1 41.6,111.5 35.7,111.5 35.7,108 42.2,108 42.2,106.4 34,106.4 34,118.6 
		42.6,118.6 42.6,117 35.7,117 	"/>
	<path class="st0" d="M53.4,111.4l-0.5-0.1c-0.7-0.2-1.5-0.4-1.9-1c-0.2-0.3-0.3-0.6-0.3-0.9c0-0.6,0.2-0.9,0.5-1.1
		c0.6-0.6,1.7-0.7,2-0.7c1.4,0,2.1,0.8,2.3,1.1c0.2,0.3,0.3,0.6,0.4,0.9l0.1,0.3l1.6-0.8l-0.1-0.2c-0.3-0.7-0.5-1-0.7-1.3
		c-0.8-1-2-1.5-3.6-1.5c-0.7,0-2.5,0.1-3.5,1.4c-0.4,0.5-0.6,1.2-0.6,1.9c0,1.3,0.6,2.2,1.8,2.9c0.7,0.3,1.5,0.5,2.2,0.7l0.4,0.1
		c1.4,0.4,1.9,0.6,2.2,1.1c0.2,0.3,0.3,0.6,0.3,1c0,0.9-0.6,1.7-1.7,2c-0.5,0.2-1,0.2-1.2,0.2c-1.9,0-2.5-0.9-2.7-1.4
		c-0.1-0.3-0.2-0.5-0.2-1.2l0-0.5l-1.7,0.9l0,0.2c0.5,2.3,2.1,3.5,4.6,3.5c1.6,0,2.5-0.5,3.1-0.9c1.4-1,1.6-2.2,1.6-2.9
		c0-1-0.4-1.9-1.2-2.5C55.6,111.9,54.4,111.6,53.4,111.4z"/>
	<path class="st0" d="M67.4,106.4l-5,12.2h1.9l1.3-3.5h4.8l1.3,3.5h1.9l-4.9-12.2H67.4z M66.3,113.6l1.8-4.8l1.8,4.8H66.3z"/>
	<path class="st0" d="M86.3,113.2c1.4-0.5,2.2-1.6,2.2-3.2c0-0.7-0.2-1.3-0.5-1.9c-0.9-1.5-2.5-1.7-3.1-1.7c-0.3,0-0.7,0-1,0l-4.6,0
		v12.2h1.7v-5.2h2.3l3.7,5.2h2.1l-3.8-5.2C85.8,113.3,86,113.2,86.3,113.2z M86.8,109.9c0,0.6-0.2,1-0.4,1.2
		c-0.5,0.6-1.1,0.7-2.1,0.7c-0.3,0-0.6,0-0.9,0c0,0-2.4,0-2.4,0v-3.9h3.3c0.9,0,1.7,0.1,2.2,0.8C86.7,109.1,86.8,109.5,86.8,109.9z"
		/>
	<path class="st0" d="M101.9,113.2c1.4-0.5,2.2-1.6,2.2-3.2c0-0.7-0.2-1.3-0.5-1.9c-0.9-1.5-2.5-1.7-3.1-1.7c-0.3,0-0.7,0-1,0
		l-4.6,0v12.2h1.7v-5.2h2.3l3.7,5.2h2.1l-3.8-5.2C101.3,113.3,101.6,113.2,101.9,113.2z M102.4,109.9c0,0.6-0.2,1-0.4,1.2
		c-0.5,0.6-1.1,0.7-2.1,0.7c-0.3,0-0.6,0-0.9,0c0,0-2.4,0-2.4,0v-3.9h3.3c0.9,0,1.7,0.1,2.2,0.8
		C102.3,109.1,102.4,109.5,102.4,109.9z"/>
	<path class="st0" d="M115.3,106.1c-0.9,0-1.6,0.2-2,0.3c-0.9,0.4-1.5,1-1.7,1.2c-0.7,0.8-1.6,2.3-1.6,4.8c0,2.6,0.9,4.2,1.7,5
		c1,1,2.1,1.4,3.6,1.4c0.9,0,1.5-0.2,1.9-0.3c0.7-0.3,1.4-0.8,2-1.5c0.9-1.1,1.4-2.9,1.4-4.6c0-2.3-0.8-3.8-1.1-4.3
		C118.5,106.8,117.2,106.1,115.3,106.1z M117.8,108.7c1.2,1.4,1.1,3.6,1.1,3.7c0,0.4-0.1,2.6-1.3,3.9c-0.6,0.7-1.3,1-2.3,1
		c-0.9,0-1.6-0.3-2.2-0.8c-1.2-1.2-1.3-3.4-1.3-4c0-0.8,0.2-4.9,3.6-4.9c0.6,0,1.1,0.1,1.5,0.3C117.3,108.2,117.6,108.6,117.8,108.7
		z"/>
	<polygon class="st0" points="128.8,106.4 127.1,106.4 127.1,118.6 135.3,118.6 135.3,117 128.8,117 	"/>
	<polygon class="st0" points="143,106.4 141.3,106.4 141.3,118.6 149.5,118.6 149.5,117 143,117 	"/>
	<path class="st0" d="M159.6,106.1c-0.9,0-1.6,0.2-2,0.3c-0.9,0.4-1.5,1-1.7,1.2c-0.7,0.8-1.6,2.3-1.6,4.8c0,2.6,0.9,4.2,1.7,5
		c1,1,2.1,1.4,3.6,1.4c0.9,0,1.5-0.2,1.9-0.3c0.7-0.3,1.4-0.8,2-1.5c0.9-1.1,1.4-2.9,1.4-4.6c0-2.3-0.8-3.8-1.1-4.3
		C162.8,106.8,161.4,106.1,159.6,106.1z M162,108.7c1.2,1.4,1.1,3.6,1.1,3.7c0,0.4-0.1,2.6-1.3,3.9c-0.6,0.7-1.3,1-2.3,1
		c-0.9,0-1.6-0.3-2.2-0.8c-1.2-1.2-1.3-3.4-1.3-4c0-0.8,0.2-4.9,3.6-4.9c0.6,0,1.1,0.1,1.5,0.3C161.5,108.2,161.9,108.6,162,108.7z"
		/>
	<polygon class="st0" points="199.6,115.2 197,106.4 195.8,106.4 193.2,115.2 190.7,106.4 188.9,106.4 192.5,118.6 193.8,118.6 
		196.4,109.9 198.9,118.6 200.3,118.6 203.8,106.4 202,106.4 	"/>
	<polygon class="st0" points="211.2,113.1 217.1,113.1 217.1,111.5 211.2,111.5 211.2,108 217.7,108 217.7,106.4 209.5,106.4 
		209.5,118.6 218.1,118.6 218.1,117 211.2,117 	"/>
	<path class="st0" d="M232.2,112c0.1,0,0.2-0.1,0.3-0.2c1.1-0.7,1.2-1.9,1.2-2.3c0-0.4-0.1-1.2-0.6-1.9c-0.6-0.8-1.5-1.2-2.7-1.3
		c-0.3,0-0.5,0-0.8,0h-5.1v12.2l5.1,0c0.9,0,1.9,0,2.7-0.5c1.6-0.8,1.7-2.4,1.7-3.1C234,113.6,233.3,112.5,232.2,112z M231.9,109.5
		c0,0.3-0.1,0.7-0.3,1.1c-0.5,0.6-1.3,0.7-2.2,0.7h-3.2v-3.3l3.4,0c0.8,0,1.6,0,2,0.6C231.8,108.8,231.9,109.2,231.9,109.5z
		 M226.1,112.8h2.9c0.8,0,1.6,0,2.2,0.4c0.9,0.5,1,1.4,1,1.8c0,1.4-1.1,1.8-1.4,1.8c-0.4,0.1-1.1,0.1-2.1,0.1h-2.7V112.8z"/>
</g>
</svg>
