<?xml version="1.0" encoding="utf-8"?>
<!-- Generator: Adobe Illustrator 22.1.0, SVG Export Plug-In . SVG Version: 6.00 Build 0)  -->
<svg version="1.1" id="Capa_1" xmlns="http://www.w3.org/2000/svg" xmlns:xlink="http://www.w3.org/1999/xlink" x="0px" y="0px"
	 viewBox="0 0 256 256" style="enable-background:new 0 0 256 256;" xml:space="preserve">
<style type="text/css">
	.st0{fill:#696969;}
	.st1{fill:#BF0C39;}
	.st2{opacity:0.3;}
	.st3{fill:#000307;}
	.st4{fill:#5C5C5C;}
	.st5{fill:#C42A25;}
	.st6{fill:#8E8E8E;}
	.st7{fill:#A7A7A7;}
	.st8{fill:#999999;}
</style>
<g>
	<g>
		<path class="st0" d="M20.4,232h-9.2l-1.7,3.3H5.9l10-19.9l10,19.9h-3.7L20.4,232z M12.9,228.7h5.9l-2.9-5.9L12.9,228.7z"/>
		<path class="st0" d="M31.5,215.4h3.3V232h10v3.3H31.5V215.4z"/>
		<path class="st0" d="M65.4,225.4c1.2,1.1,1.7,2.5,1.7,4.2c0,1.6-0.6,2.9-1.7,4.1c-1.1,1.1-2.5,1.7-4.1,1.7H50.5v-19.9h10.8
			c1.6,0,3,0.6,4.1,1.7c1.1,1.1,1.7,2.5,1.7,4.1C67.1,222.9,66.5,224.3,65.4,225.4z M61.3,218.8h-7.5v5h7.5c0.3,0,0.6-0.1,0.9-0.2
			c0.3-0.1,0.6-0.3,0.8-0.5c0.2-0.2,0.4-0.5,0.5-0.8c0.1-0.3,0.2-0.6,0.2-1c0-0.3-0.1-0.6-0.2-0.9c-0.1-0.3-0.3-0.6-0.5-0.8
			c-0.2-0.2-0.5-0.4-0.8-0.5C62,218.8,61.6,218.8,61.3,218.8z M61.3,232c0.3,0,0.6-0.1,0.9-0.2c0.3-0.1,0.6-0.3,0.8-0.5
			c0.2-0.2,0.4-0.5,0.5-0.8c0.1-0.3,0.2-0.6,0.2-0.9c0-0.7-0.2-1.3-0.7-1.8c-0.5-0.5-1.1-0.7-1.7-0.7h-7.5v5H61.3z"/>
		<path class="st0" d="M86.1,215.4v3.3h-10v5h10v3.3h-10v5h10v3.3H72.9v-19.9H86.1z"/>
		<path class="st0" d="M104.6,235.4l-3.8-6.6h-5.6v6.6h-3.3v-19.9h10c1.8,0,3.4,0.7,4.7,2c1.3,1.3,2,2.9,2,4.7
			c0,1.4-0.4,2.6-1.2,3.8c-0.8,1.1-1.7,1.9-2.9,2.4l4.1,7.1H104.6z M101.8,218.8h-6.7v6.6l6.7,0c0.9,0,1.7-0.3,2.3-1
			c0.7-0.7,1-1.4,1-2.4c0-0.9-0.3-1.7-1-2.3C103.5,219.1,102.7,218.8,101.8,218.8z"/>
		<path class="st0" d="M114.2,215.4h16.6v3.3h-6.6v16.6h-3.3v-16.6h-6.7V215.4z"/>
		<path class="st0" d="M144.2,215.4c2.8,0,5.1,1,7,2.9c2,2,3,4.3,3,7c0,2.8-1,5.1-3,7c-1.9,2-4.3,2.9-7,2.9c-2.8,0-5.1-1-7-2.9
			c-2-1.9-2.9-4.3-2.9-7c0-2.7,1-5.1,2.9-7C139.1,216.4,141.5,215.4,144.2,215.4z M144.2,218.8c-1.8,0-3.4,0.7-4.7,2
			c-1.3,1.3-1.9,2.9-1.9,4.7c0,1.8,0.6,3.4,1.9,4.7c1.3,1.3,2.9,1.9,4.7,1.9s3.4-0.6,4.7-1.9c1.3-1.3,2-2.9,2-4.7
			c0-1.8-0.7-3.4-2-4.7C147.6,219.4,146.1,218.8,144.2,218.8z"/>
		<path class="st1" d="M170,215.4c1.4,0,2.7,0.3,3.9,0.8c1.2,0.5,2.3,1.2,3.2,2.2l-2.4,2.4c-1.3-1.3-2.9-2-4.7-2
			c-0.9,0-1.8,0.2-2.6,0.5c-0.8,0.3-1.5,0.8-2.1,1.4c-0.6,0.6-1.1,1.3-1.4,2.1c-0.4,0.8-0.5,1.7-0.5,2.6c0,0.9,0.2,1.8,0.5,2.6
			c0.4,0.8,0.8,1.5,1.4,2.1c0.6,0.6,1.3,1.1,2.1,1.4c0.8,0.3,1.7,0.5,2.6,0.5c1.8,0,3.4-0.6,4.7-1.9l2.4,2.3c-0.9,0.9-2,1.6-3.2,2.2
			c-1.2,0.5-2.5,0.8-3.9,0.8c-1.4,0-2.7-0.3-3.9-0.8c-1.2-0.5-2.3-1.2-3.2-2.1c-0.9-0.9-1.6-2-2.2-3.2c-0.5-1.2-0.8-2.5-0.8-3.9
			c0-1.3,0.3-2.6,0.8-3.8c0.5-1.2,1.2-2.3,2.2-3.2c0.9-0.9,2-1.6,3.2-2.2C167.3,215.7,168.6,215.4,170,215.4z"/>
		<path class="st1" d="M190,215.4c2.8,0,5.1,1,7,2.9c2,2,3,4.3,3,7c0,2.8-1,5.1-3,7c-1.9,2-4.3,2.9-7,2.9c-2.8,0-5.1-1-7-2.9
			c-2-1.9-2.9-4.3-2.9-7c0-2.7,1-5.1,2.9-7C184.9,216.4,187.2,215.4,190,215.4z M190,218.8c-1.8,0-3.4,0.7-4.7,2
			c-1.3,1.3-1.9,2.9-1.9,4.7c0,1.8,0.6,3.4,1.9,4.7c1.3,1.3,2.9,1.9,4.7,1.9c1.8,0,3.4-0.6,4.7-1.9c1.3-1.3,1.9-2.9,1.9-4.7
			c0-1.8-0.6-3.4-1.9-4.7C193.4,219.4,191.8,218.8,190,218.8z"/>
		<path class="st1" d="M205.7,215.4h3.3V232h10v3.3h-13.3V215.4z"/>
		<path class="st1" d="M223.4,215l4.4-4.4l1.5,1.5l-4.4,4.4L223.4,215z M224.1,217.9h4.4v17.5h-4.4V217.9z"/>
		<path class="st1" d="M233.5,215.4l13.3,11.9v-11.9h3.3v19.9v0v0.1l-13.3-11.9v11.9h-3.3V215.4z"/>
	</g>
</g>
<g>
	<g class="st2">
		<polygon class="st3" points="132.9,49 144.7,82.3 178.4,82.3 166.6,49 		"/>
		<polygon class="st3" points="165.7,44.1 153.9,10.9 120.1,10.9 131.9,44.1 		"/>
		<polygon class="st3" points="183.3,82.3 217.1,82.3 205.3,49 171.5,49 		"/>
		<polygon class="st3" points="194.1,44.1 186,21.2 162.8,21.2 170.9,44.1 		"/>
		<polygon class="st3" points="201.3,17.6 196.5,4.2 182.9,4.2 187.6,17.6 		"/>
		<path class="st3" d="M136.2,89.7l2-2.8L115.5,25c-1.5-4.2-6.1-7.5-10.3-7.5H92.9h-7.5l8.7,23.9h-7.5H74.2c-4.2,0-8.8,3.4-10.3,7.5
			l-27.1,74.6h7.5h12.4c4.2,0,8.8-3.4,10.3-7.5l27.1-74.6l17.7,48.3l-35.1,0l2.6,7.1l4.2,11.6c1.4,3.9,6.2,7.1,10.6,7.1l23.7,0
			L136.2,89.7L136.2,89.7z"/>
		<path class="st3" d="M148.6,115.5l58.4,0l-2.6-7.1l-4.2-11.6c-1.4-3.9-6.2-7.1-10.6-7.1l-47.1,0l-1.8,2.5l0,0l-18.6,26.1l24,65.6
			c1.5,4.2,6.1,7.5,10.3,7.5h12.4h7.5l0,0l22-0.1c4.4,0,9.2-3.2,10.6-7.1l4.2-11.6l2.6-7.1l-48.8,0.1L148.6,115.5z"/>
	</g>
	<g>
		<path class="st3" d="M38.9,121.3h7.5h12.4c4.2,0,8.8-3.4,10.3-7.5l27.1-74.6h-7.5H76.3c-4.2,0-8.8,3.4-10.3,7.5L38.9,121.3z"/>
		<path class="st3" d="M171.1,189.2l-17.2-7.1l4.2-11.6c1.4-3.9,6.2-7.1,10.6-7.1l49.1-0.1l-2.6,7.1l-4.2,11.6
			c-1.4,3.9-6.2,7.1-10.6,7.1L171.1,189.2z"/>
		<polygon class="st4" points="146.8,80.1 135,46.9 168.8,46.9 180.6,80.1 		"/>
		<polygon class="st5" points="134.1,42 122.3,8.7 156,8.7 167.8,42 		"/>
		<polygon class="st5" points="185.5,80.1 173.7,46.9 207.5,46.9 219.3,80.1 		"/>
		<polygon class="st6" points="173,42 164.9,19.1 188.2,19.1 196.3,42 		"/>
		<polygon class="st7" points="189.8,15.4 185,2 198.7,2 203.5,15.4 		"/>
		<g>
			<path class="st3" d="M140.3,84.7l-22.6-61.9c-1.5-4.2-6.1-7.5-10.3-7.5H95h-7.5l26.4,72.2l-35.1,0l2.6,7.1l4.2,11.6
				c1.4,3.9,6.2,7.1,10.6,7.1l23.7,0L140.3,84.7z"/>
			<path class="st5" d="M138.3,87.5l-24.4,0l-35.1,0l2.6,7.1l4.2,11.6c1.4,3.9,6.2,7.1,10.6,7.1l23.7,0L138.3,87.5z"/>
			<path class="st3" d="M209.2,113.4l-2.6-7.1l-4.2-11.6c-1.4-3.9-6.2-7.1-10.6-7.1l-47.1,0l-20.4,28.6l24,65.6
				c1.5,4.2,6.1,7.5,10.3,7.5H171h7.5l-27.8-75.9L209.2,113.4z"/>
			<path class="st5" d="M209.2,113.4l-2.6-7.1l-4.2-11.6c-1.4-3.9-6.2-7.1-10.6-7.1l-47.1,0l-1.8,2.5l7.8,23.3L209.2,113.4z"/>
		</g>
	</g>
</g>
<g>
	<path class="st8" d="M6,247.4c0-0.3,0.2-0.5,0.5-0.5c0.3,0,0.5,0.2,0.5,0.5v6.2c0,0.3-0.2,0.5-0.5,0.5c-0.3,0-0.5-0.2-0.5-0.5
		V247.4z"/>
	<path class="st8" d="M8.7,247.4c0-0.3,0.2-0.5,0.5-0.5c0.3,0,0.5,0.2,0.5,0.5v5.8c0,0,0,0.1,0.1,0.1h3.1c0.3,0,0.5,0.2,0.5,0.4
		c0,0.3-0.2,0.4-0.5,0.4H9.2c-0.3,0-0.5-0.2-0.5-0.5V247.4z"/>
	<path class="st8" d="M18.2,247.4c0-0.3,0.2-0.5,0.5-0.5c0.3,0,0.5,0.2,0.5,0.5v4.2c0,1.7-1,2.6-2.5,2.6c-1.5,0-2.5-0.9-2.5-2.6
		v-4.2c0-0.3,0.2-0.5,0.5-0.5c0.3,0,0.5,0.2,0.5,0.5v4.2c0,1.2,0.6,1.7,1.6,1.7c0.9,0,1.6-0.6,1.6-1.7V247.4z"/>
	<path class="st8" d="M20.8,253.5c-0.1-0.1-0.2-0.2-0.2-0.4c0-0.2,0.2-0.4,0.5-0.4c0.1,0,0.2,0,0.3,0.1c0.5,0.3,1.1,0.6,1.8,0.6
		c1,0,1.6-0.5,1.6-1.2c0-0.6-0.3-1-1.5-1.2l-0.3-0.1c-1.4-0.2-2.1-0.9-2.1-2c0-1.3,0.9-2.1,2.3-2.1c0.8,0,1.5,0.2,1.9,0.5
		c0.2,0.1,0.3,0.3,0.3,0.4c0,0.2-0.2,0.4-0.4,0.4c-0.1,0-0.2,0-0.3-0.1c-0.5-0.2-0.9-0.4-1.4-0.4c-0.9,0-1.4,0.5-1.4,1.2
		c0,0.6,0.4,1,1.5,1.1l0.3,0.1c1.4,0.2,2.1,0.9,2.1,2c0,1.2-0.9,2.1-2.6,2.1C22,254.2,21.3,253.9,20.8,253.5z"/>
	<path class="st8" d="M31.1,247c0.3,0,0.5,0.2,0.5,0.4c0,0.2-0.2,0.4-0.5,0.4h-1.6c0,0-0.1,0-0.1,0.1v5.8c0,0.3-0.2,0.5-0.5,0.5
		c-0.3,0-0.5-0.2-0.5-0.5v-5.8c0,0,0-0.1-0.1-0.1h-1.6c-0.3,0-0.5-0.2-0.5-0.4c0-0.3,0.2-0.4,0.5-0.4H31.1z"/>
	<path class="st8" d="M32.7,253.6v-6.3c0-0.3,0.2-0.4,0.4-0.4h2.2c1.4,0,2.3,0.8,2.3,2.1c0,1-0.5,1.6-1.4,1.9l1.3,2.5
		c0,0.1,0.1,0.2,0.1,0.3c0,0.2-0.2,0.4-0.5,0.4c-0.2,0-0.3-0.1-0.5-0.3l-1.4-2.8h-1.6c0,0-0.1,0-0.1,0.1v2.5c0,0.3-0.2,0.5-0.5,0.5
		C32.9,254.2,32.7,254,32.7,253.6z M36.7,249c0-0.7-0.5-1.2-1.3-1.2h-1.7c0,0-0.1,0-0.1,0.1v2.2c0,0,0,0.1,0.1,0.1h1.7
		C36.2,250.2,36.7,249.8,36.7,249z"/>
	<path class="st8" d="M38.7,253.5l2.2-6.1c0.1-0.3,0.3-0.5,0.6-0.5c0.3,0,0.5,0.2,0.6,0.5l2.2,6.1c0,0.1,0,0.1,0,0.2
		c0,0.3-0.2,0.4-0.4,0.4c-0.2,0-0.4-0.1-0.5-0.3l-0.5-1.4H40l-0.5,1.4c-0.1,0.2-0.2,0.3-0.5,0.3c-0.2,0-0.4-0.2-0.4-0.4
		C38.6,253.6,38.6,253.6,38.7,253.5z M42.6,251.6l-1.1-3.2h0l-1.2,3.2H42.6z"/>
	<path class="st8" d="M45.1,250.5c0-1,0-1.5,0.2-2c0.4-1.1,1.2-1.7,2.4-1.7c0.9,0,1.7,0.4,2.1,1.2c0.1,0.1,0.1,0.2,0.1,0.3
		c0,0.3-0.2,0.4-0.4,0.4c-0.2,0-0.3-0.1-0.4-0.3c-0.3-0.5-0.7-0.8-1.3-0.8c-0.8,0-1.3,0.4-1.5,1.1c-0.1,0.3-0.2,0.8-0.2,1.7
		s0.1,1.4,0.2,1.7c0.2,0.7,0.7,1.1,1.5,1.1c0.6,0,1-0.3,1.3-0.8c0.1-0.2,0.2-0.3,0.4-0.3c0.2,0,0.4,0.2,0.4,0.4c0,0.1,0,0.2-0.1,0.3
		c-0.4,0.7-1.2,1.2-2.1,1.2c-1.2,0-2-0.6-2.4-1.7C45.2,252,45.1,251.5,45.1,250.5z"/>
	<path class="st8" d="M51.3,247.4c0-0.3,0.2-0.5,0.5-0.5c0.3,0,0.5,0.2,0.5,0.5v6.2c0,0.3-0.2,0.5-0.5,0.5c-0.3,0-0.5-0.2-0.5-0.5
		V247.4z"/>
	<path class="st8" d="M53.9,252.5c-0.2-0.5-0.2-1-0.2-2c0-1,0-1.5,0.2-2c0.4-1.1,1.2-1.7,2.4-1.7c1.2,0,2.1,0.6,2.4,1.7
		c0.2,0.5,0.2,1,0.2,2c0,1,0,1.5-0.2,2c-0.4,1.1-1.2,1.7-2.4,1.7C55.1,254.2,54.3,253.6,53.9,252.5z M57.9,252.2
		c0.1-0.3,0.2-0.8,0.2-1.7s-0.1-1.4-0.2-1.7c-0.2-0.7-0.7-1.1-1.5-1.1c-0.8,0-1.3,0.4-1.5,1.1c-0.1,0.3-0.2,0.8-0.2,1.7
		s0.1,1.4,0.2,1.7c0.2,0.7,0.7,1.1,1.5,1.1C57.2,253.3,57.7,252.9,57.9,252.2z M56.8,244.8c0.1-0.1,0.2-0.1,0.3-0.1
		c0.2,0,0.4,0.1,0.4,0.3c0,0.1,0,0.2-0.1,0.3l-0.7,0.8c-0.1,0.1-0.2,0.2-0.3,0.2c-0.2,0-0.3-0.1-0.3-0.3c0-0.1,0-0.2,0.1-0.3
		L56.8,244.8z"/>
	<path class="st8" d="M60.5,247.5c0-0.3,0.2-0.6,0.5-0.6c0.3,0,0.5,0.2,0.6,0.5l3,5h0v-5c0-0.3,0.2-0.5,0.4-0.5
		c0.3,0,0.4,0.2,0.4,0.5v6.2c0,0.3-0.2,0.6-0.5,0.6c-0.3,0-0.5-0.2-0.6-0.5l-3-5h0v5c0,0.3-0.2,0.5-0.4,0.5c-0.3,0-0.4-0.2-0.4-0.5
		V247.5z"/>
	<path class="st8" d="M77.5,247.4c0-0.3,0.2-0.4,0.4-0.4h1.8c1.4,0,2.2,0.5,2.6,1.6c0.2,0.5,0.2,0.9,0.2,1.9c0,1-0.1,1.5-0.2,1.9
		c-0.3,1.1-1.2,1.6-2.6,1.6H78c-0.3,0-0.4-0.2-0.4-0.4V247.4z M78.5,253.2h1.2c0.9,0,1.5-0.3,1.7-1.1c0.1-0.4,0.2-0.8,0.2-1.6
		s-0.1-1.3-0.2-1.6c-0.3-0.8-0.8-1.1-1.7-1.1h-1.2c0,0-0.1,0-0.1,0.1L78.5,253.2C78.5,253.2,78.5,253.2,78.5,253.2z"/>
	<path class="st8" d="M84.1,247.4c0-0.3,0.2-0.5,0.5-0.5c0.3,0,0.5,0.2,0.5,0.5v6.2c0,0.3-0.2,0.5-0.5,0.5c-0.3,0-0.5-0.2-0.5-0.5
		V247.4z"/>
	<path class="st8" d="M86.7,253.5c-0.1-0.1-0.2-0.2-0.2-0.4c0-0.2,0.2-0.4,0.5-0.4c0.1,0,0.2,0,0.3,0.1c0.5,0.3,1.1,0.6,1.8,0.6
		c1,0,1.6-0.5,1.6-1.2c0-0.6-0.3-1-1.5-1.2l-0.3-0.1c-1.4-0.2-2.1-0.9-2.1-2c0-1.3,0.9-2.1,2.3-2.1c0.8,0,1.5,0.2,1.9,0.5
		c0.2,0.1,0.3,0.3,0.3,0.4c0,0.2-0.2,0.4-0.4,0.4c-0.1,0-0.2,0-0.3-0.1c-0.5-0.2-0.9-0.4-1.4-0.4c-0.9,0-1.4,0.5-1.4,1.2
		c0,0.6,0.4,1,1.5,1.1l0.3,0.1c1.4,0.2,2.1,0.9,2.1,2c0,1.2-0.9,2.1-2.6,2.1C88,254.2,87.2,253.9,86.7,253.5z"/>
	<path class="st8" d="M93,247.4c0-0.3,0.2-0.4,0.4-0.4h3.7c0.3,0,0.5,0.2,0.5,0.4c0,0.3-0.2,0.4-0.5,0.4H94c0,0-0.1,0-0.1,0.1v2.1
		c0,0,0,0.1,0.1,0.1h2.6c0.3,0,0.5,0.2,0.5,0.4c0,0.3-0.2,0.4-0.5,0.4H94c0,0-0.1,0-0.1,0.1v2.2c0,0,0,0.1,0.1,0.1h3.1
		c0.3,0,0.5,0.2,0.5,0.4c0,0.3-0.2,0.4-0.5,0.4h-3.7c-0.3,0-0.4-0.2-0.4-0.4V247.4z"/>
	<path class="st8" d="M98.9,247.5c0-0.3,0.2-0.6,0.5-0.6c0.3,0,0.5,0.2,0.6,0.5l3,5h0v-5c0-0.3,0.2-0.5,0.4-0.5
		c0.3,0,0.4,0.2,0.4,0.5v6.2c0,0.3-0.2,0.6-0.5,0.6c-0.3,0-0.5-0.2-0.6-0.5l-3-5h0v5c0,0.3-0.2,0.5-0.4,0.5c-0.3,0-0.4-0.2-0.4-0.5
		V247.5z M100.5,245.8c-0.1,0.1-0.2,0.1-0.3,0.1c-0.2,0-0.3-0.1-0.3-0.3c0-0.1,0-0.2,0.1-0.2c0.3-0.4,0.5-0.5,0.8-0.5
		c0.3,0,0.4,0.1,0.7,0.2c0.2,0.2,0.4,0.2,0.5,0.2c0.2,0,0.3-0.1,0.4-0.2c0.1-0.1,0.2-0.1,0.3-0.1c0.2,0,0.3,0.1,0.3,0.3
		c0,0.1,0,0.2-0.1,0.2c-0.3,0.4-0.5,0.5-0.8,0.5c-0.3,0-0.4-0.1-0.7-0.2c-0.2-0.2-0.4-0.2-0.5-0.2
		C100.8,245.6,100.7,245.7,100.5,245.8z"/>
	<path class="st8" d="M105.7,252.5c-0.2-0.5-0.2-1-0.2-2c0-1,0-1.5,0.2-2c0.4-1.1,1.2-1.7,2.4-1.7c1.2,0,2.1,0.6,2.4,1.7
		c0.2,0.5,0.2,1,0.2,2c0,1,0,1.5-0.2,2c-0.4,1.1-1.2,1.7-2.4,1.7C106.9,254.2,106.1,253.6,105.7,252.5z M109.7,252.2
		c0.1-0.3,0.2-0.8,0.2-1.7s-0.1-1.4-0.2-1.7c-0.2-0.7-0.7-1.1-1.5-1.1c-0.8,0-1.3,0.4-1.5,1.1c-0.1,0.3-0.2,0.8-0.2,1.7
		s0.1,1.4,0.2,1.7c0.2,0.7,0.7,1.1,1.5,1.1C109,253.3,109.5,252.9,109.7,252.2z"/>
	<path class="st8" d="M122,253.5l2.2-6.1c0.1-0.3,0.3-0.5,0.6-0.5c0.3,0,0.5,0.2,0.6,0.5l2.2,6.1c0,0.1,0,0.1,0,0.2
		c0,0.3-0.2,0.4-0.4,0.4c-0.2,0-0.4-0.1-0.5-0.3l-0.5-1.4h-2.9l-0.5,1.4c-0.1,0.2-0.2,0.3-0.5,0.3c-0.2,0-0.4-0.2-0.4-0.4
		C121.9,253.6,122,253.6,122,253.5z M125.9,251.6l-1.1-3.2h0l-1.2,3.2H125.9z"/>
	<path class="st8" d="M128.8,247.5c0-0.3,0.2-0.6,0.5-0.6c0.3,0,0.5,0.2,0.6,0.5l3,5h0v-5c0-0.3,0.2-0.5,0.4-0.5
		c0.3,0,0.4,0.2,0.4,0.5v6.2c0,0.3-0.2,0.6-0.5,0.6c-0.3,0-0.5-0.2-0.6-0.5l-3-5h0v5c0,0.3-0.2,0.5-0.4,0.5c-0.3,0-0.4-0.2-0.4-0.5
		V247.5z"/>
	<path class="st8" d="M135.7,247.4c0-0.3,0.2-0.5,0.5-0.5c0.3,0,0.5,0.2,0.5,0.5v6.2c0,0.3-0.2,0.5-0.5,0.5c-0.3,0-0.5-0.2-0.5-0.5
		V247.4z"/>
	<path class="st8" d="M138.4,247.5c0-0.4,0.2-0.6,0.5-0.6c0.3,0,0.4,0.2,0.6,0.5l2,4.5h0l1.9-4.5c0.1-0.3,0.3-0.5,0.6-0.5
		c0.3,0,0.5,0.2,0.5,0.6v6.2c0,0.3-0.2,0.5-0.4,0.5c-0.3,0-0.4-0.2-0.4-0.5V249h0l-1.6,3.6c-0.2,0.4-0.3,0.5-0.5,0.5
		c-0.2,0-0.4-0.1-0.5-0.5l-1.6-3.6h0v4.7c0,0.3-0.2,0.5-0.4,0.5c-0.3,0-0.4-0.2-0.4-0.5V247.5z"/>
	<path class="st8" d="M145.9,253.5l2.2-6.1c0.1-0.3,0.3-0.5,0.6-0.5s0.5,0.2,0.6,0.5l2.2,6.1c0,0.1,0,0.1,0,0.2
		c0,0.3-0.2,0.4-0.4,0.4c-0.2,0-0.4-0.1-0.5-0.3l-0.5-1.4h-2.9l-0.5,1.4c-0.1,0.2-0.2,0.3-0.5,0.3c-0.2,0-0.4-0.2-0.4-0.4
		C145.8,253.6,145.8,253.6,145.9,253.5z M149.8,251.6l-1.1-3.2h0l-1.2,3.2H149.8z"/>
	<path class="st8" d="M152.3,250.5c0-1,0-1.5,0.2-2c0.4-1.1,1.2-1.7,2.4-1.7c0.9,0,1.7,0.4,2.1,1.2c0.1,0.1,0.1,0.2,0.1,0.3
		c0,0.3-0.2,0.4-0.4,0.4c-0.2,0-0.3-0.1-0.4-0.3c-0.3-0.5-0.7-0.8-1.3-0.8c-0.8,0-1.3,0.4-1.5,1.1c-0.1,0.3-0.2,0.8-0.2,1.7
		s0.1,1.4,0.2,1.7c0.2,0.7,0.7,1.1,1.5,1.1c0.6,0,1-0.3,1.3-0.8c0.1-0.2,0.2-0.3,0.4-0.3c0.2,0,0.4,0.2,0.4,0.4c0,0.1,0,0.2-0.1,0.3
		c-0.4,0.7-1.2,1.2-2.1,1.2c-1.2,0-2-0.6-2.4-1.7C152.4,252,152.3,251.5,152.3,250.5z"/>
	<path class="st8" d="M158.5,247.4c0-0.3,0.2-0.5,0.5-0.5c0.3,0,0.5,0.2,0.5,0.5v6.2c0,0.3-0.2,0.5-0.5,0.5c-0.3,0-0.5-0.2-0.5-0.5
		V247.4z"/>
	<path class="st8" d="M161.1,252.5c-0.2-0.5-0.2-1-0.2-2c0-1,0-1.5,0.2-2c0.4-1.1,1.2-1.7,2.4-1.7c1.2,0,2.1,0.6,2.4,1.7
		c0.2,0.5,0.2,1,0.2,2c0,1,0,1.5-0.2,2c-0.4,1.1-1.2,1.7-2.4,1.7C162.3,254.2,161.5,253.6,161.1,252.5z M165.1,252.2
		c0.1-0.3,0.2-0.8,0.2-1.7s-0.1-1.4-0.2-1.7c-0.2-0.7-0.7-1.1-1.5-1.1c-0.8,0-1.3,0.4-1.5,1.1c-0.1,0.3-0.2,0.8-0.2,1.7
		s0.1,1.4,0.2,1.7c0.2,0.7,0.7,1.1,1.5,1.1C164.4,253.3,164.9,252.9,165.1,252.2z M164,244.8c0.1-0.1,0.2-0.1,0.3-0.1
		c0.2,0,0.4,0.1,0.4,0.3c0,0.1,0,0.2-0.1,0.3l-0.7,0.8c-0.1,0.1-0.2,0.2-0.3,0.2c-0.2,0-0.3-0.1-0.3-0.3c0-0.1,0-0.2,0.1-0.3
		L164,244.8z"/>
	<path class="st8" d="M167.7,247.5c0-0.3,0.2-0.6,0.5-0.6c0.3,0,0.5,0.2,0.6,0.5l3,5h0v-5c0-0.3,0.2-0.5,0.4-0.5
		c0.3,0,0.4,0.2,0.4,0.5v6.2c0,0.3-0.2,0.6-0.5,0.6c-0.3,0-0.5-0.2-0.6-0.5l-3-5h0v5c0,0.3-0.2,0.5-0.4,0.5c-0.3,0-0.4-0.2-0.4-0.5
		V247.5z"/>
	<path class="st8" d="M184.7,247.5c0-0.4,0.2-0.6,0.5-0.6c0.3,0,0.4,0.2,0.6,0.5l2,4.5h0l1.9-4.5c0.1-0.3,0.3-0.5,0.6-0.5
		c0.3,0,0.5,0.2,0.5,0.6v6.2c0,0.3-0.2,0.5-0.4,0.5c-0.3,0-0.4-0.2-0.4-0.5V249h0l-1.6,3.6c-0.2,0.4-0.3,0.5-0.5,0.5
		c-0.2,0-0.4-0.1-0.5-0.5l-1.6-3.6h0v4.7c0,0.3-0.2,0.5-0.4,0.5c-0.3,0-0.4-0.2-0.4-0.5V247.5z"/>
	<path class="st8" d="M192.6,252.5c-0.2-0.5-0.2-1-0.2-2c0-1,0-1.5,0.2-2c0.4-1.1,1.2-1.7,2.4-1.7c1.2,0,2.1,0.6,2.4,1.7
		c0.2,0.5,0.2,1,0.2,2c0,1,0,1.5-0.2,2c-0.4,1.1-1.2,1.7-2.4,1.7C193.8,254.2,193,253.6,192.6,252.5z M196.6,252.2
		c0.1-0.3,0.2-0.8,0.2-1.7s-0.1-1.4-0.2-1.7c-0.2-0.7-0.7-1.1-1.5-1.1c-0.8,0-1.3,0.4-1.5,1.1c-0.1,0.3-0.2,0.8-0.2,1.7
		s0.1,1.4,0.2,1.7c0.2,0.7,0.7,1.1,1.5,1.1C195.9,253.3,196.3,252.9,196.6,252.2z"/>
	<path class="st8" d="M199.2,247.4c0-0.3,0.2-0.4,0.4-0.4h1.8c1.4,0,2.2,0.5,2.6,1.6c0.2,0.5,0.2,0.9,0.2,1.9c0,1-0.1,1.5-0.2,1.9
		c-0.3,1.1-1.2,1.6-2.6,1.6h-1.8c-0.3,0-0.4-0.2-0.4-0.4V247.4z M200.2,253.2h1.2c0.9,0,1.5-0.3,1.7-1.1c0.1-0.4,0.2-0.8,0.2-1.6
		s-0.1-1.3-0.2-1.6c-0.3-0.8-0.8-1.1-1.7-1.1h-1.2c0,0-0.1,0-0.1,0.1L200.2,253.2C200.1,253.2,200.1,253.2,200.2,253.2z"/>
	<path class="st8" d="M205.7,247.4c0-0.3,0.2-0.4,0.4-0.4h3.7c0.3,0,0.5,0.2,0.5,0.4c0,0.3-0.2,0.4-0.5,0.4h-3.1c0,0-0.1,0-0.1,0.1
		v2.1c0,0,0,0.1,0.1,0.1h2.6c0.3,0,0.5,0.2,0.5,0.4c0,0.3-0.2,0.4-0.5,0.4h-2.6c0,0-0.1,0-0.1,0.1v2.2c0,0,0,0.1,0.1,0.1h3.1
		c0.3,0,0.5,0.2,0.5,0.4c0,0.3-0.2,0.4-0.5,0.4h-3.7c-0.3,0-0.4-0.2-0.4-0.4V247.4z"/>
	<path class="st8" d="M211.6,247.4c0-0.3,0.2-0.5,0.5-0.5s0.5,0.2,0.5,0.5v5.8c0,0,0,0.1,0.1,0.1h3.1c0.3,0,0.5,0.2,0.5,0.4
		c0,0.3-0.2,0.4-0.5,0.4h-3.6c-0.3,0-0.5-0.2-0.5-0.5V247.4z"/>
	<path class="st8" d="M216.8,253.5l2.2-6.1c0.1-0.3,0.3-0.5,0.6-0.5c0.3,0,0.5,0.2,0.6,0.5l2.2,6.1c0,0.1,0,0.1,0,0.2
		c0,0.3-0.2,0.4-0.4,0.4c-0.2,0-0.4-0.1-0.5-0.3l-0.5-1.4h-2.9l-0.5,1.4c-0.1,0.2-0.2,0.3-0.5,0.3c-0.2,0-0.4-0.2-0.4-0.4
		C216.8,253.6,216.8,253.6,216.8,253.5z M220.8,251.6l-1.1-3.2h0l-1.2,3.2H220.8z"/>
	<path class="st8" d="M223.7,247.4c0-0.3,0.2-0.4,0.4-0.4h1.8c1.4,0,2.2,0.5,2.6,1.6c0.2,0.5,0.2,0.9,0.2,1.9c0,1-0.1,1.5-0.2,1.9
		c-0.3,1.1-1.2,1.6-2.6,1.6h-1.8c-0.3,0-0.4-0.2-0.4-0.4V247.4z M224.7,253.2h1.2c0.9,0,1.5-0.3,1.7-1.1c0.1-0.4,0.2-0.8,0.2-1.6
		s-0.1-1.3-0.2-1.6c-0.3-0.8-0.8-1.1-1.7-1.1h-1.2c0,0-0.1,0-0.1,0.1L224.7,253.2C224.6,253.2,224.6,253.2,224.7,253.2z"/>
	<path class="st8" d="M230.2,252.5c-0.2-0.5-0.2-1-0.2-2c0-1,0-1.5,0.2-2c0.4-1.1,1.2-1.7,2.4-1.7c1.2,0,2.1,0.6,2.4,1.7
		c0.2,0.5,0.2,1,0.2,2c0,1,0,1.5-0.2,2c-0.4,1.1-1.2,1.7-2.4,1.7C231.4,254.2,230.5,253.6,230.2,252.5z M234.1,252.2
		c0.1-0.3,0.2-0.8,0.2-1.7s-0.1-1.4-0.2-1.7c-0.2-0.7-0.7-1.1-1.5-1.1c-0.8,0-1.3,0.4-1.5,1.1c-0.1,0.3-0.2,0.8-0.2,1.7
		s0.1,1.4,0.2,1.7c0.2,0.7,0.7,1.1,1.5,1.1C233.4,253.3,233.9,252.9,234.1,252.2z"/>
	<path class="st8" d="M239.2,252.8c0-0.2,0.2-0.4,0.4-0.4c0.2,0,0.3,0.1,0.4,0.3c0.2,0.4,0.6,0.7,1.2,0.7c0.8,0,1.2-0.5,1.2-1.3
		c0-0.8-0.5-1.3-1.3-1.3h-0.1c-0.3,0-0.4-0.2-0.4-0.4c0-0.2,0.2-0.4,0.4-0.4h0.1c0.7,0,1.2-0.5,1.2-1.2c0-0.7-0.4-1.1-1.1-1.1
		c-0.6,0-0.9,0.3-1.1,0.7c-0.1,0.2-0.2,0.3-0.4,0.3c-0.2,0-0.4-0.2-0.4-0.4c0-0.1,0-0.2,0-0.2c0.2-0.6,0.9-1.2,1.9-1.2
		c1.2,0,2,0.8,2,1.9c0,0.8-0.4,1.3-0.9,1.6v0c0.5,0.2,1,0.8,1,1.8c0,1.2-0.9,2.1-2.1,2.1c-1.1,0-1.7-0.5-2-1.2
		C239.2,252.9,239.2,252.8,239.2,252.8z"/>
	<path class="st8" d="M245,247.4c0-0.3,0.2-0.4,0.4-0.4h1.8c1.4,0,2.2,0.5,2.6,1.6c0.2,0.5,0.2,0.9,0.2,1.9c0,1-0.1,1.5-0.2,1.9
		c-0.3,1.1-1.2,1.6-2.6,1.6h-1.8c-0.3,0-0.4-0.2-0.4-0.4V247.4z M246,253.2h1.2c0.9,0,1.5-0.3,1.7-1.1c0.1-0.4,0.2-0.8,0.2-1.6
		s-0.1-1.3-0.2-1.6c-0.3-0.8-0.8-1.1-1.7-1.1H246c0,0-0.1,0-0.1,0.1L246,253.2C245.9,253.2,245.9,253.2,246,253.2z"/>
</g>
</svg>
